# xmcd
# Copyright (C) 1995-1998 Ti Kan
#
# Track frame offsets:
#       150
#       26809
#       50468
#       70747
#       92223
#       112338
#       132238
#       157459
#       177329
#       207797
#
# Disc length: 2910 seconds
#
# Revision: 0
# Processed by: cddbd v1.5.2PL0 Copyright (c) Steve Scherf et al.
# Submitted via: CD-Import v1.0
#
DISCID=970b5c0a
DTITLE=Notwist - Shrink
DYEAR=1900
DGENRE=
TTITLE0=Day 7
TTITLE1=Chemicals
TTITLE2=Another Planet
TTITLE3=Moron
TTITLE4=Electric Bear
TTITLE5=No Encores
TTITLE6=Nl
TTITLE7=Shrink
TTITLE8=Your Signs
TTITLE9=	0-4
EXTD=
EXTT0=
EXTT1=
EXTT2=
EXTT3=
EXTT4=
EXTT5=
EXTT6=
EXTT7=
EXTT8=
EXTT9=
PLAYORDER=
